<svg width="113" height="77" viewBox="0 0 113 77" fill="none" xmlns="http://www.w3.org/2000/svg">
<g filter="url(#filter0_d_0_82)">
<path d="M19.9543 10.6475H8.35947C5.5252 10.3795 4.91075 7.16369 5.00987 5.82376C5.216 3.0367 7.07116 1 8.35947 1H52.6773C55.2539 1.26799 55.7692 4.75181 55.7692 5.82376C55.7692 8.50363 54.2233 10.3795 52.6773 10.6475H41.0825C37.1661 11.5051 36.0152 14.578 35.9293 16.0073V63.9769C35.414 68.2647 31.8067 67.9967 30.2607 67.9967C27.1688 67.9967 25.1075 65.8528 24.8498 63.9769C24.7639 49.059 24.8498 18.6871 24.8498 16.0073C24.8498 13.4257 22.0156 10.9155 19.9543 10.6475Z" fill="#181C06"/>
<path fill-rule="evenodd" clip-rule="evenodd" d="M5.88048 2.06453C6.56601 1.16091 7.48133 0.5 8.35943 0.5H52.7032L52.729 0.502683C54.2766 0.663649 55.1643 1.79706 55.6481 2.91125C56.1321 4.02607 56.2692 5.23574 56.2692 5.82376C56.2692 8.6604 54.6244 10.8175 52.7626 11.1402L52.7203 11.1475H41.1374C37.5466 11.9584 36.5117 14.7589 36.4292 16.0229V64.0068L36.4257 64.0366C36.2884 65.1788 35.9403 66.0537 35.4431 66.7145C34.945 67.3764 34.3184 67.7955 33.6689 68.0582C32.5315 68.5183 31.2867 68.506 30.5124 68.4984C30.4217 68.4975 30.3375 68.4967 30.2607 68.4967C26.9435 68.4967 24.6493 66.192 24.3544 64.0449L24.35 64.0125L24.3498 63.9798C24.2791 51.7033 24.3247 28.9618 24.3431 19.7981C24.3471 17.825 24.3498 16.4814 24.3498 16.0073C24.3498 14.8942 23.7316 13.74 22.8183 12.8102C21.9135 11.889 20.8019 11.2729 19.9204 11.1475H8.33585L8.31237 11.1453C6.67505 10.9905 5.68465 9.97116 5.13616 8.85874C4.59648 7.7642 4.45589 6.53446 4.51119 5.78687C4.62158 4.29429 5.17325 2.99674 5.88048 2.06453ZM6.67715 2.66894C6.08319 3.45184 5.60421 4.56616 5.50847 5.86064C5.46465 6.45299 5.58173 7.50115 6.03306 8.41651C6.47278 9.30832 7.20027 10.0274 8.38385 10.1475H19.9866L20.0187 10.1517C21.1937 10.3045 22.5145 11.0738 23.5317 12.1094C24.5509 13.1471 25.3498 14.5388 25.3498 16.0073C25.3498 16.4832 25.3471 17.83 25.3431 19.807C25.3247 28.9682 25.2792 51.6613 25.3496 63.9398C25.5891 65.539 27.4124 67.4967 30.2607 67.4967C30.3453 67.4967 30.4337 67.4973 30.5256 67.498C31.3162 67.5036 32.3548 67.5111 33.294 67.1312C33.8039 66.9249 34.2724 66.6071 34.644 66.1133C35.0127 65.6232 35.3066 64.9325 35.4292 63.9464V15.9922L35.4301 15.9773C35.526 14.3818 36.7892 11.0757 40.9755 10.1591L41.0284 10.1475H52.6315C53.853 9.90726 55.2692 8.31976 55.2692 5.82376C55.2692 5.33983 55.1486 4.27162 54.7308 3.30954C54.3161 2.35451 53.665 1.6162 52.6501 1.5H8.35943C7.94922 1.5 7.29281 1.85744 6.67715 2.66894Z" fill="#181C06"/>
<path fill-rule="evenodd" clip-rule="evenodd" d="M59.7693 62.6789V16.9424C60.0257 12.4995 63.6154 1.78405 75.6667 1H92.5898C98.2308 1 108.231 6.22703 109 20.8627C109 27.1351 107.462 40.9867 92.5898 41.5094H79.0001C74.3847 42.0322 70.7949 46.7365 70.7949 52.4862V62.6789C71.0513 68.69 61.5642 70.7808 59.7693 62.6789ZM84.6411 33.9303C92.1465 33.9303 98.2308 28.7818 98.2308 22.4308C98.2308 16.0798 92.1465 10.9313 84.6411 10.9313C77.1357 10.9313 71.0513 16.0798 71.0513 22.4308C71.0513 28.7818 77.1357 33.9303 84.6411 33.9303Z" fill="#181C06"/>
</g>
<defs>
<filter id="filter0_d_0_82" x="0.5" y="0.5" width="112.5" height="76.0006" filterUnits="userSpaceOnUse" color-interpolation-filters="sRGB">
<feFlood flood-opacity="0" result="BackgroundImageFix"/>
<feColorMatrix in="SourceAlpha" type="matrix" values="0 0 0 0 0 0 0 0 0 0 0 0 0 0 0 0 0 0 127 0" result="hardAlpha"/>
<feOffset dy="4"/>
<feGaussianBlur stdDeviation="2"/>
<feComposite in2="hardAlpha" operator="out"/>
<feColorMatrix type="matrix" values="0 0 0 0 0 0 0 0 0 0 0 0 0 0 0 0 0 0 0.25 0"/>
<feBlend mode="normal" in2="BackgroundImageFix" result="effect1_dropShadow_0_82"/>
<feBlend mode="normal" in="SourceGraphic" in2="effect1_dropShadow_0_82" result="shape"/>
</filter>
</defs>
</svg>
