<svg width="50" height="67" viewBox="0 0 50 67" fill="none" xmlns="http://www.w3.org/2000/svg">
<path fill-rule="evenodd" clip-rule="evenodd" d="M0.769287 61.6789V15.9424C1.0257 11.4995 4.61544 0.784054 16.6667 0H33.5898C39.2308 0 49.2308 5.22703 50.0001 19.8627C50.0001 26.1351 48.4616 39.9867 33.5898 40.5094H20.0001C15.3847 41.0322 11.7949 45.7365 11.7949 51.4862V61.6789C12.0513 67.69 2.56416 69.7808 0.769287 61.6789ZM25.6411 32.9303C33.1465 32.9303 39.2308 27.7818 39.2308 21.4308C39.2308 15.0798 33.1465 9.93135 25.6411 9.93135C18.1357 9.93135 12.0513 15.0798 12.0513 21.4308C12.0513 27.7818 18.1357 32.9303 25.6411 32.9303Z" fill="#181C06"/>
</svg>
