<svg width="247" height="42" viewBox="0 0 247 42" fill="none" xmlns="http://www.w3.org/2000/svg">
<path d="M246.15 17.816C241.35 17.688 237.862 17.608 235.686 17.576V35H225.51V17.576C223.366 17.608 219.894 17.688 215.094 17.816V8.79199H246.15V17.816Z" fill="#181C06"/>
<path d="M192.82 21.896C192.884 23.528 193.396 24.84 194.356 25.832C195.348 26.824 196.804 27.32 198.724 27.32C199.78 27.32 200.724 27.128 201.556 26.744C202.388 26.328 203.156 25.72 203.86 24.92C206.58 25.976 209.764 26.888 213.412 27.656C212.356 30.12 210.564 32.04 208.036 33.416C205.54 34.792 202.292 35.48 198.292 35.48C192.948 35.48 188.996 34.232 186.436 31.736C183.876 29.24 182.596 25.96 182.596 21.896C182.596 17.832 183.876 14.552 186.436 12.056C188.996 9.55995 192.948 8.31195 198.292 8.31195C202.292 8.31195 205.54 8.99995 208.036 10.376C210.564 11.752 212.356 13.672 213.412 16.136C210.564 16.744 207.38 17.656 203.86 18.872C203.156 18.072 202.388 17.48 201.556 17.096C200.724 16.68 199.78 16.472 198.724 16.472C196.804 16.472 195.348 16.968 194.356 17.96C193.396 18.952 192.884 20.264 192.82 21.896Z" fill="#181C06"/>
<path d="M178.266 27.032C178.266 28.12 178.394 28.888 178.65 29.336C178.906 29.784 179.418 30.104 180.186 30.296L179.994 34.808C178.97 34.968 178.074 35.08 177.306 35.144C176.57 35.208 175.578 35.24 174.33 35.24C171.578 35.24 169.754 34.632 168.858 33.416C167.962 32.168 167.514 30.584 167.514 28.664V27.464C166.586 30.088 165.226 32.04 163.434 33.32C161.674 34.6 159.418 35.24 156.666 35.24C153.466 35.24 151.05 34.6 149.418 33.32C147.818 32.04 147.018 30.136 147.018 27.608C147.018 25.528 147.706 23.896 149.082 22.712C150.458 21.528 152.586 20.712 155.466 20.264C153.034 18.536 150.602 17.032 148.17 15.752C150.09 13.32 152.282 11.48 154.746 10.232C157.21 8.95195 160.202 8.31195 163.722 8.31195C168.65 8.31195 172.298 9.38395 174.666 11.528C177.066 13.64 178.266 16.904 178.266 21.32V27.032ZM164.73 16.76C163.098 16.76 161.658 17.032 160.41 17.576C159.162 18.12 158.042 18.936 157.05 20.024C158.97 19.8 161.37 19.688 164.25 19.688C165.434 19.688 166.266 19.544 166.746 19.256C167.226 18.968 167.466 18.6 167.466 18.152C167.466 17.768 167.226 17.448 166.746 17.192C166.266 16.904 165.594 16.76 164.73 16.76ZM159.69 27.416C161.482 27.416 163.098 27.08 164.538 26.408C165.978 25.704 166.97 24.792 167.514 23.672V22.424C166.746 22.808 165.898 23.112 164.97 23.336C164.042 23.528 162.922 23.72 161.61 23.912L159.882 24.2C158.09 24.552 157.194 25.16 157.194 26.024C157.194 26.952 158.026 27.416 159.69 27.416Z" fill="#181C06"/>
<path d="M138.651 22.472C140.091 23.624 141.195 24.92 141.963 26.36C142.731 27.8 143.451 29.528 144.123 31.544C144.795 33.304 145.275 34.456 145.563 35H133.995C133.899 34.776 133.707 34.072 133.419 32.888C133.163 31.704 132.907 30.76 132.651 30.056C132.395 29.32 132.011 28.68 131.499 28.136C130.699 27.272 129.803 26.712 128.811 26.456C127.819 26.2 126.347 26.072 124.395 26.072V35H114.123C114.283 31.352 114.363 26.984 114.363 21.896C114.363 16.808 114.283 12.44 114.123 8.79199H124.395V18.2H124.587C128.395 14.392 131.163 11.256 132.891 8.79199H145.563L134.331 19.976C135.995 20.68 137.435 21.512 138.651 22.472Z" fill="#181C06"/>
<path d="M108.825 28.184H110.265V41.096H101.193V35.864H86.0251V41.192H76.9531V28.184H78.5371C79.6251 28.024 80.4411 27.624 80.9851 26.984C81.5611 26.344 82.0091 25.288 82.3291 23.816C82.5531 22.664 82.6651 19.912 82.6651 15.56V8.79199L108.825 8.83999V28.184ZM90.8251 26.6C90.7611 26.952 90.6331 27.48 90.4411 28.184H99.6571V16.904H91.4971V18.344C91.4651 20.2 91.4171 21.672 91.3531 22.76C91.2891 23.816 91.1131 25.096 90.8251 26.6Z" fill="#181C06"/>
<path d="M58.9853 35.48C53.5133 35.48 49.4813 34.232 46.8893 31.736C44.3293 29.208 43.0493 25.896 43.0493 21.8C43.0493 17.8 44.3293 14.552 46.8893 12.056C49.4813 9.55995 53.5133 8.31195 58.9853 8.31195C62.6653 8.31195 65.7373 8.91995 68.2013 10.136C70.6973 11.32 72.5373 12.936 73.7213 14.984C74.9053 17 75.4973 19.272 75.4973 21.8C75.4973 25.928 74.1213 29.24 71.3693 31.736C68.6493 34.232 64.5213 35.48 58.9853 35.48ZM59.1773 27.32C61.2573 27.32 62.8093 26.824 63.8333 25.832C64.8573 24.84 65.3693 23.512 65.3693 21.848C65.3693 20.28 64.8573 19 63.8333 18.008C62.8093 16.984 61.2573 16.472 59.1773 16.472C57.0973 16.472 55.5773 16.968 54.6173 17.96C53.6573 18.952 53.1773 20.248 53.1773 21.848C53.1773 23.512 53.6573 24.84 54.6173 25.832C55.5773 26.824 57.0973 27.32 59.1773 27.32Z" fill="#181C06"/>
<path d="M39.7039 0.151978C39.4799 5.55998 39.3679 11.368 39.3679 17.576C39.3679 23.784 39.4799 29.592 39.7039 35H28.4239V9.84798H12.1999V35H0.919922C1.17592 28.792 1.30392 22.984 1.30392 17.576C1.30392 12.168 1.17592 6.35998 0.919922 0.151978H39.7039Z" fill="#181C06"/>
</svg>
