<svg width="23" height="23" viewBox="0 0 23 23" fill="none" xmlns="http://www.w3.org/2000/svg">
<path d="M11.2459 0.0140991C9.09931 0.0140991 7.00092 0.688139 5.21609 1.95097C3.43132 3.21387 2.04023 5.00883 1.21872 7.10885C0.39727 9.20894 0.182342 11.5198 0.601148 13.7492C1.01989 15.9786 2.05355 18.0264 3.57143 19.6338C5.0893 21.241 7.02321 22.3357 9.12854 22.7791C11.2339 23.2225 13.4161 22.995 15.3993 22.1251C17.3825 21.2552 19.0775 19.7821 20.2701 17.8921C21.4627 16.0021 22.0992 13.7801 22.0992 11.507C22.0992 8.45889 20.9557 5.53564 18.9204 3.38032C16.8849 1.22493 14.1244 0.0140991 11.2459 0.0140991ZM16.2264 16.5885C16.1803 16.6697 16.1193 16.7404 16.0471 16.7964C15.9749 16.8525 15.8929 16.8927 15.8058 16.9149C15.7188 16.9371 15.6285 16.9408 15.5401 16.9257C15.4517 16.9106 15.367 16.877 15.291 16.827C12.7444 15.176 9.53952 14.8091 5.76294 15.7171C5.67701 15.7388 5.58792 15.7423 5.50073 15.7272C5.41359 15.7121 5.33006 15.6789 5.25517 15.6294C5.18023 15.5799 5.11532 15.5152 5.06417 15.4389C5.01303 15.3626 4.97679 15.2764 4.95741 15.1851C4.93676 15.0936 4.93347 14.9986 4.94755 14.9057C4.9617 14.8128 4.99296 14.7237 5.03962 14.6436C5.08628 14.5636 5.14746 14.494 5.2195 14.439C5.2916 14.384 5.37324 14.3445 5.45975 14.3229C9.59148 13.3231 13.1428 13.7542 16.0013 15.6071C16.1538 15.7058 16.2631 15.8646 16.3053 16.0485C16.3476 16.2325 16.3192 16.4266 16.2264 16.5885ZM17.5517 13.4607C17.4307 13.6579 17.2427 13.7983 17.0267 13.8529C16.8107 13.9075 16.5832 13.8722 16.3911 13.7542C13.0976 11.8088 9.20961 11.3272 5.58104 12.415C5.46814 12.4817 5.34256 12.5208 5.21356 12.5294C5.08451 12.5379 4.95532 12.5158 4.83542 12.4646C4.71552 12.4134 4.60799 12.3345 4.52067 12.2336C4.43335 12.1327 4.36844 12.0123 4.33074 11.8814C4.29305 11.7504 4.28352 11.6122 4.30284 11.4768C4.32216 11.3415 4.36983 11.2124 4.44237 11.0991C4.51492 10.9858 4.61052 10.8912 4.72209 10.8221C4.83372 10.753 4.95848 10.7112 5.08729 10.6999C7.11262 10.0825 9.23404 9.89991 11.3269 10.163C13.4198 10.426 15.442 11.1294 17.2746 12.2317C17.4608 12.3598 17.5933 12.5588 17.6449 12.7875C17.6965 13.0163 17.6631 13.2573 17.5517 13.4607ZM17.6643 10.2046C14.1996 8.00317 8.40483 7.80137 5.06134 8.87455C4.80404 8.9573 4.52623 8.92837 4.28907 8.79416C4.05192 8.66001 3.87481 8.43157 3.79671 8.1591C3.71861 7.88669 3.74588 7.5925 3.8726 7.34133C3.99926 7.09024 4.21501 6.90267 4.4723 6.81999C8.30955 5.59088 14.676 5.82936 18.7038 8.35172C18.9108 8.50866 19.0545 8.74236 19.1063 9.0064C19.158 9.27038 19.114 9.54535 18.983 9.77662C18.852 10.0078 18.6436 10.1783 18.3993 10.2542C18.1549 10.3301 17.8925 10.3059 17.6643 10.1862V10.2046Z" fill="#181C06"/>
</svg>
