<svg width="23" height="23" viewBox="0 0 23 23" fill="none" xmlns="http://www.w3.org/2000/svg">
<path d="M9.9856 7.32819V10.8114V12.2036V15.6867H12.8387V12.2036V10.8114V7.32819H9.9856Z" fill="#181C06"/>
<path d="M1.42652 12.1599C2.21436 12.1599 2.85303 11.5167 2.85303 10.7232C2.85303 9.92981 2.21436 9.28662 1.42652 9.28662C0.638674 9.28662 0 9.92981 0 10.7232C0 11.5167 0.638674 12.1599 1.42652 12.1599Z" fill="#181C06"/>
<path d="M1.42652 13.7274C2.21436 13.7274 2.85303 13.0842 2.85303 12.2908C2.85303 11.4974 2.21436 10.8542 1.42652 10.8542C0.638674 10.8542 0 11.4974 0 12.2908C0 13.0842 0.638674 13.7274 1.42652 13.7274Z" fill="#181C06"/>
<path d="M2.85303 10.7239H0V12.2912H2.85303V10.7239Z" fill="#181C06"/>
<path d="M21.3974 13.7274C22.1853 13.7274 22.8239 13.0842 22.8239 12.2908C22.8239 11.4974 22.1853 10.8542 21.3974 10.8542C20.6096 10.8542 19.9709 11.4974 19.9709 12.2908C19.9709 13.0842 20.6096 13.7274 21.3974 13.7274Z" fill="#181C06"/>
<path d="M21.3974 12.1599C22.1853 12.1599 22.8239 11.5167 22.8239 10.7232C22.8239 9.92981 22.1853 9.28662 21.3974 9.28662C20.6096 9.28662 19.9709 9.92981 19.9709 10.7232C19.9709 11.5167 20.6096 12.1599 21.3974 12.1599Z" fill="#181C06"/>
<path d="M19.9709 12.2912H22.8239V10.7239H19.9709V12.2912Z" fill="#181C06"/>
<path d="M6.35424 16.862C7.14206 16.862 7.78074 16.2188 7.78074 15.4254C7.78074 14.632 7.14206 13.9888 6.35424 13.9888C5.5664 13.9888 4.92773 14.632 4.92773 15.4254C4.92773 16.2188 5.5664 16.862 6.35424 16.862Z" fill="#181C06"/>
<path d="M6.35424 18.429C7.14206 18.429 7.78074 17.7858 7.78074 16.9923C7.78074 16.1989 7.14206 15.5557 6.35424 15.5557C5.5664 15.5557 4.92773 16.1989 4.92773 16.9923C4.92773 17.7858 5.5664 18.429 6.35424 18.429Z" fill="#181C06"/>
<path d="M7.78074 15.4253H4.92773V16.9925H7.78074V15.4253Z" fill="#181C06"/>
<path d="M6.35424 7.45842C7.14206 7.45842 7.78074 6.81523 7.78074 6.02183C7.78074 5.2284 7.14206 4.58521 6.35424 4.58521C5.5664 4.58521 4.92773 5.2284 4.92773 6.02183C4.92773 6.81523 5.5664 7.45842 6.35424 7.45842Z" fill="#181C06"/>
<path d="M6.35424 12.5514C7.14206 12.5514 7.78074 11.9082 7.78074 11.1148C7.78074 10.3214 7.14206 9.67816 6.35424 9.67816C5.5664 9.67816 4.92773 10.3214 4.92773 11.1148C4.92773 11.9082 5.5664 12.5514 6.35424 12.5514Z" fill="#181C06"/>
<path d="M7.78074 6.02179H4.92773V11.148H7.78074V6.02179Z" fill="#181C06"/>
<path d="M16.4697 9.02608C17.2575 9.02608 17.8962 8.38289 17.8962 7.58946C17.8962 6.79603 17.2575 6.15283 16.4697 6.15283C15.6819 6.15283 15.0432 6.79603 15.0432 7.58946C15.0432 8.38289 15.6819 9.02608 16.4697 9.02608Z" fill="#181C06"/>
<path d="M16.4697 7.45842C17.2575 7.45842 17.8962 6.81523 17.8962 6.02183C17.8962 5.2284 17.2575 4.58521 16.4697 4.58521C15.6819 4.58521 15.0432 5.2284 15.0432 6.02183C15.0432 6.81523 15.6819 7.45842 16.4697 7.45842Z" fill="#181C06"/>
<path d="M15.043 7.589H17.896V6.02179H15.043V7.589Z" fill="#181C06"/>
<path d="M11.4121 4.45497C12.2 4.45497 12.8387 3.81178 12.8387 3.01835C12.8387 2.22492 12.2 1.58173 11.4121 1.58173C10.6243 1.58173 9.9856 2.22492 9.9856 3.01835C9.9856 3.81178 10.6243 4.45497 11.4121 4.45497Z" fill="#181C06"/>
<path d="M11.4121 2.88734C12.2 2.88734 12.8387 2.24414 12.8387 1.45072C12.8387 0.657298 12.2 0.0140991 11.4121 0.0140991C10.6243 0.0140991 9.9856 0.657298 9.9856 1.45072C9.9856 2.24414 10.6243 2.88734 11.4121 2.88734Z" fill="#181C06"/>
<path d="M9.9856 3.01785H12.8387V1.45062H9.9856V3.01785Z" fill="#181C06"/>
<path d="M11.4121 23C12.2 23 12.8387 22.3568 12.8387 21.5634C12.8387 20.77 12.2 20.1268 11.4121 20.1268C10.6243 20.1268 9.9856 20.77 9.9856 21.5634C9.9856 22.3568 10.6243 23 11.4121 23Z" fill="#181C06"/>
<path d="M11.4121 21.4331C12.2 21.4331 12.8387 20.7899 12.8387 19.9965C12.8387 19.2031 12.2 18.5599 11.4121 18.5599C10.6243 18.5599 9.9856 19.2031 9.9856 19.9965C9.9856 20.7899 10.6243 21.4331 11.4121 21.4331Z" fill="#181C06"/>
<path d="M9.9856 21.5637H12.8387V19.9965H9.9856V21.5637Z" fill="#181C06"/>
<path d="M16.4697 18.429C17.2575 18.429 17.8962 17.7858 17.8962 16.9923C17.8962 16.1989 17.2575 15.5557 16.4697 15.5557C15.6819 15.5557 15.0432 16.1989 15.0432 16.9923C15.0432 17.7858 15.6819 18.429 16.4697 18.429Z" fill="#181C06"/>
<path d="M16.4697 13.3359C17.2575 13.3359 17.8962 12.6927 17.8962 11.8993C17.8962 11.1058 17.2575 10.4626 16.4697 10.4626C15.6819 10.4626 15.0432 11.1058 15.0432 11.8993C15.0432 12.6927 15.6819 13.3359 16.4697 13.3359Z" fill="#181C06"/>
<path d="M15.043 16.9928H17.896V11.8993H15.043V16.9928Z" fill="#181C06"/>
<path d="M11.4121 8.76469C12.2 8.76469 12.8387 8.12144 12.8387 7.32807C12.8387 6.53464 12.2 5.89142 11.4121 5.89142C10.6243 5.89142 9.9856 6.53464 9.9856 7.32807C9.9856 8.12144 10.6243 8.76469 11.4121 8.76469Z" fill="#181C06"/>
<path d="M11.4121 17.1232C12.2 17.1232 12.8387 16.48 12.8387 15.6866C12.8387 14.8931 12.2 14.2499 11.4121 14.2499C10.6243 14.2499 9.9856 14.8931 9.9856 15.6866C9.9856 16.48 10.6243 17.1232 11.4121 17.1232Z" fill="#181C06"/>
</svg>
