<svg width="31" height="23" viewBox="0 0 31 23" fill="none" xmlns="http://www.w3.org/2000/svg">
<g clip-path="url(#clip0_0_133)">
<path fill-rule="evenodd" clip-rule="evenodd" d="M13.8772 0.0569064C13.8772 0.0848464 13.0948 0.0994573 11.6085 0.0994573C9.61826 0.0994573 9.33985 0.107404 9.33985 0.16354C9.33985 0.219164 9.1907 0.227623 8.23498 0.227623C7.27926 0.227623 7.13011 0.236338 7.13011 0.291705C7.13011 0.346304 7.02713 0.355788 6.43977 0.355788C5.85218 0.355788 5.7492 0.365529 5.7492 0.419871C5.7492 0.473444 5.67037 0.483954 5.27572 0.483954C4.87113 0.483954 4.80224 0.493951 4.80224 0.551369C4.80224 0.603916 4.76176 0.616989 4.61474 0.611606C4.27454 0.599046 4.21039 0.609299 4.21039 0.676202C4.21039 0.726186 4.15783 0.740285 3.97365 0.740285C3.78946 0.740285 3.73691 0.754639 3.73691 0.804367C3.73691 0.849225 3.69524 0.86845 3.59889 0.86845C3.5023 0.86845 3.46063 0.887931 3.46063 0.932533C3.46063 0.97534 3.42133 0.996615 3.34226 0.996615C3.26342 0.996615 3.22389 1.01815 3.22389 1.0607C3.22389 1.10351 3.18459 1.12478 3.10552 1.12478C3.02668 1.12478 2.98715 1.14631 2.98715 1.18886C2.98715 1.22424 2.96063 1.25295 2.92796 1.25295C2.89553 1.25295 2.86878 1.28191 2.86878 1.31703C2.86878 1.35984 2.82948 1.38111 2.75041 1.38111C2.67157 1.38111 2.63204 1.40264 2.63204 1.44519C2.63204 1.48057 2.60552 1.50928 2.57285 1.50928C2.54042 1.50928 2.51367 1.53824 2.51367 1.57336C2.51367 1.60873 2.48715 1.63744 2.45448 1.63744C2.42205 1.63744 2.3953 1.66641 2.3953 1.70153C2.3953 1.7369 2.36878 1.76561 2.33611 1.76561C2.30368 1.76561 2.27693 1.79457 2.27693 1.82969C2.27693 1.86506 2.25041 1.89377 2.21774 1.89377C2.18531 1.89377 2.15856 1.92274 2.15856 1.95786C2.15856 1.99323 2.13204 2.02194 2.09937 2.02194C2.06007 2.02194 2.04019 2.06475 2.04019 2.1501C2.04019 2.23572 2.02054 2.27827 1.981 2.27827C1.94857 2.27827 1.92181 2.30724 1.92181 2.34235C1.92181 2.37773 1.8953 2.40644 1.86263 2.40644C1.82333 2.40644 1.80344 2.44924 1.80344 2.5346C1.80344 2.62022 1.7838 2.66277 1.74426 2.66277C1.70496 2.66277 1.68507 2.70557 1.68507 2.79093C1.68507 2.87655 1.66542 2.9191 1.62589 2.9191C1.5847 2.9191 1.5667 2.96421 1.5667 3.06879C1.5667 3.17312 1.54895 3.21824 1.50752 3.21824C1.46159 3.21824 1.44833 3.27514 1.44833 3.47457C1.44833 3.67399 1.43531 3.7309 1.38915 3.7309C1.34275 3.7309 1.32996 3.79011 1.32996 4.0085C1.32996 4.2269 1.31742 4.28637 1.27078 4.28637C1.22296 4.28637 1.21159 4.35506 1.21159 4.64933C1.21159 4.9436 1.20047 5.01255 1.15241 5.01255C1.10317 5.01255 1.09322 5.09791 1.09322 5.52521C1.09322 5.95252 1.08352 6.03788 1.03404 6.03788C0.983848 6.03788 0.974852 6.14938 0.974852 6.78559C0.974852 7.42155 0.966093 7.53305 0.915667 7.53305C0.866662 7.53305 0.856482 7.61585 0.856482 8.02085C0.856482 8.371 0.842751 8.5148 0.80724 8.53018C0.767704 8.54735 0.767704 8.55248 0.80724 8.55504C0.869976 8.5594 0.879919 10.2673 0.817183 10.2673C0.791615 10.2673 0.777647 10.7231 0.777647 11.549C0.777647 12.3749 0.791615 12.8306 0.817183 12.8306C0.842514 12.8306 0.856482 13.3077 0.856482 14.1764C0.856482 15.3442 0.864294 15.5221 0.915667 15.5221C0.966093 15.5221 0.974852 15.6359 0.974852 16.2911C0.974852 16.9463 0.983611 17.0601 1.03404 17.0601C1.08352 17.0601 1.09322 17.1455 1.09322 17.5728C1.09322 18.0001 1.10317 18.0854 1.15241 18.0854C1.20023 18.0854 1.21159 18.1518 1.21159 18.4271C1.21159 18.7024 1.22319 18.7691 1.27078 18.7691C1.31765 18.7691 1.32996 18.8301 1.32996 19.0636C1.32996 19.2858 1.34464 19.364 1.38915 19.3825C1.43105 19.3999 1.44833 19.4704 1.44833 19.6221C1.44833 19.7846 1.46277 19.8369 1.50752 19.8369C1.54705 19.8369 1.5667 19.8797 1.5667 19.9651C1.5667 20.0507 1.58659 20.0933 1.62589 20.0933C1.66542 20.0933 1.68507 20.1361 1.68507 20.2214C1.68507 20.307 1.70496 20.3496 1.74426 20.3496C1.7838 20.3496 1.80344 20.3924 1.80344 20.4778C1.80344 20.5634 1.82333 20.6059 1.86263 20.6059C1.90217 20.6059 1.92181 20.6487 1.92181 20.7341C1.92181 20.8197 1.9417 20.8623 1.981 20.8623C2.01367 20.8623 2.04019 20.8912 2.04019 20.9263C2.04019 20.9617 2.06694 20.9904 2.09937 20.9904C2.13204 20.9904 2.15856 21.0194 2.15856 21.0545C2.15856 21.0899 2.18531 21.1186 2.21774 21.1186C2.25041 21.1186 2.27693 21.1476 2.27693 21.1827C2.27693 21.218 2.30368 21.2468 2.33611 21.2468C2.36878 21.2468 2.3953 21.2757 2.3953 21.3108C2.3953 21.3462 2.42205 21.3749 2.45448 21.3749C2.48715 21.3749 2.51603 21.4039 2.51864 21.439C2.52811 21.5623 2.53379 21.5818 2.5693 21.6172C2.59013 21.6377 2.59392 21.6313 2.57853 21.6023C2.56386 21.5746 2.57001 21.5397 2.59203 21.5249C2.61404 21.5103 2.63204 21.5282 2.63204 21.5646C2.63204 21.6013 2.65879 21.6313 2.69122 21.6313C2.72389 21.6313 2.75041 21.6602 2.75041 21.6953C2.75041 21.7381 2.78994 21.7594 2.86878 21.7594C2.94785 21.7594 2.98715 21.7809 2.98715 21.8235C2.98715 21.8589 3.0139 21.8876 3.04633 21.8876C3.079 21.8876 3.10552 21.9165 3.10552 21.9517C3.10552 21.9965 3.14718 22.0157 3.24377 22.0157C3.34013 22.0157 3.38179 22.0352 3.38179 22.0798C3.38179 22.1226 3.42133 22.1439 3.50017 22.1439C3.57711 22.1439 3.61854 22.1657 3.61854 22.2057C3.61854 22.249 3.67441 22.2713 3.80603 22.2805C3.93009 22.2893 3.98998 22.3116 3.98359 22.3469C3.97649 22.3854 4.04609 22.4002 4.23004 22.4002C4.43174 22.4002 4.48666 22.4141 4.48666 22.4643C4.48666 22.5171 4.55674 22.5284 4.88107 22.5284C5.20565 22.5284 5.27572 22.5399 5.27572 22.5925C5.27572 22.6466 5.36734 22.6566 5.86331 22.6566C6.34934 22.6566 6.45493 22.6679 6.47363 22.7207C6.49304 22.775 6.63153 22.7847 7.38532 22.7847C8.14928 22.7847 8.27451 22.794 8.27451 22.8488C8.27451 22.9047 8.47622 22.9129 9.85263 22.9129C10.8787 22.9129 11.431 22.928 11.431 22.9557C11.431 22.9839 12.9632 22.9985 15.9487 22.9985C18.9342 22.9985 20.4667 22.9839 20.4667 22.9557C20.4667 22.928 21.0123 22.9129 22.0251 22.9129C23.3843 22.9129 23.5836 22.9047 23.5836 22.8488C23.5836 22.794 23.7086 22.7847 24.4714 22.7847C25.2344 22.7847 25.3591 22.7758 25.3591 22.7207C25.3591 22.6666 25.4534 22.6566 25.9709 22.6566C26.4882 22.6566 26.5824 22.6468 26.5824 22.5925C26.5824 22.5399 26.6525 22.5284 26.977 22.5284C27.3099 22.5284 27.3714 22.5179 27.3714 22.4613C27.3714 22.4105 27.4081 22.3956 27.5194 22.4013C27.8075 22.4156 27.8845 22.402 27.8845 22.3362C27.8845 22.2887 27.9304 22.2721 28.062 22.2721C28.1936 22.2721 28.2396 22.2557 28.2396 22.208C28.2396 22.1654 28.2791 22.1439 28.3579 22.1439C28.4368 22.1439 28.4763 22.1226 28.4763 22.0798C28.4763 22.0352 28.518 22.0157 28.6143 22.0157C28.7109 22.0157 28.7526 21.9965 28.7526 21.9517C28.7526 21.9091 28.7919 21.8876 28.871 21.8876C28.9498 21.8876 28.9893 21.8663 28.9893 21.8235C28.9893 21.7884 29.0158 21.7594 29.0485 21.7594C29.0809 21.7594 29.1077 21.7307 29.1077 21.6953C29.1077 21.6602 29.1342 21.6313 29.1669 21.6313C29.1993 21.6313 29.2261 21.6025 29.2261 21.5672C29.2261 21.5321 29.2526 21.5031 29.2853 21.5031C29.3177 21.5031 29.3444 21.4744 29.3444 21.439C29.3444 21.3965 29.3837 21.3749 29.4628 21.3749C29.5679 21.3749 29.5812 21.3608 29.5812 21.2468C29.5812 21.1614 29.6008 21.1186 29.6404 21.1186C29.6728 21.1186 29.6995 21.0899 29.6995 21.0545C29.6995 21.0194 29.7261 20.9904 29.7587 20.9904C29.7912 20.9904 29.8179 20.9617 29.8179 20.9263C29.8179 20.8912 29.8444 20.8623 29.8771 20.8623C29.9095 20.8623 29.9363 20.8335 29.9363 20.7982C29.9363 20.7631 29.9628 20.7341 29.9955 20.7341C30.0348 20.7341 30.0547 20.6915 30.0547 20.6059C30.0547 20.5206 30.0743 20.4778 30.1138 20.4778C30.1531 20.4778 30.173 20.4352 30.173 20.3496C30.173 20.2642 30.1927 20.2214 30.2322 20.2214C30.2734 20.2214 30.2914 20.1763 30.2914 20.072C30.2914 19.9677 30.3092 19.9225 30.3506 19.9225C30.3953 19.9225 30.4098 19.8697 30.4098 19.7044C30.4098 19.5278 30.4211 19.4909 30.469 19.5106C30.5177 19.5309 30.5281 19.487 30.5281 19.2589C30.5281 19.0418 30.5407 18.9826 30.5873 18.9826C30.6347 18.9826 30.6465 18.9185 30.6465 18.6622C30.6465 18.4058 30.6583 18.3418 30.7057 18.3418C30.7547 18.3418 30.7649 18.2587 30.7649 17.8504C30.7649 17.4423 30.7748 17.3592 30.8241 17.3592C30.874 17.3592 30.8833 17.2572 30.8833 16.6969C30.8833 16.1368 30.8922 16.0348 30.9424 16.0348C30.9933 16.0348 31.0016 15.8923 31.0016 15.0095C31.0016 14.1267 31.0097 13.9841 31.0608 13.9841C31.1127 13.9841 31.12 13.6827 31.12 11.5277C31.12 9.37248 31.1127 9.07104 31.0608 9.07104C31.0097 9.07104 31.0016 8.92621 31.0016 8.02316C31.0016 7.13087 30.9926 6.97143 30.9424 6.95041C30.8934 6.93016 30.8833 6.81584 30.8833 6.28959C30.8833 5.75258 30.874 5.65338 30.8241 5.65338C30.7751 5.65338 30.7649 5.57494 30.7649 5.2048C30.7649 4.82517 30.7552 4.75622 30.7026 4.75622C30.6541 4.75622 30.642 4.71239 30.647 4.55321C30.6586 4.18486 30.6491 4.11539 30.5873 4.11539C30.54 4.11539 30.5281 4.05131 30.5281 3.79498C30.5281 3.53865 30.5163 3.47457 30.469 3.47457C30.4275 3.47457 30.4098 3.42945 30.4098 3.32513C30.4098 3.22054 30.3918 3.17543 30.3506 3.17543C30.2992 3.17543 30.2628 2.95191 30.2862 2.78196C30.2886 2.76504 30.2625 2.76299 30.2287 2.77709C30.1896 2.79324 30.17 2.78093 30.1747 2.74351C30.1917 2.61047 30.1697 2.5346 30.1138 2.5346C30.0812 2.5346 30.0547 2.50589 30.0547 2.47052C30.0547 2.4354 30.0279 2.40644 29.9955 2.40644C29.9559 2.40644 29.9363 2.36388 29.9363 2.27827C29.9363 2.19291 29.9164 2.1501 29.8771 2.1501C29.8444 2.1501 29.8179 2.1214 29.8179 2.08602C29.8179 2.0509 29.7912 2.02194 29.7587 2.02194C29.7261 2.02194 29.6995 1.99323 29.6995 1.95786C29.6995 1.92274 29.6728 1.89377 29.6404 1.89377C29.6077 1.89377 29.5812 1.85609 29.5812 1.8097C29.5812 1.75254 29.5622 1.73357 29.522 1.75023C29.481 1.76715 29.4628 1.74741 29.4628 1.68615C29.4628 1.62488 29.4443 1.60514 29.4036 1.62206C29.366 1.6377 29.3444 1.62155 29.3444 1.57797C29.3444 1.54029 29.3177 1.50928 29.2853 1.50928C29.2526 1.50928 29.2261 1.48057 29.2261 1.44519C29.2261 1.41008 29.2012 1.38111 29.1709 1.38111C29.1408 1.38111 29.1058 1.3524 29.0933 1.31703C29.0809 1.28191 29.0258 1.25295 28.9709 1.25295C28.9084 1.25295 28.871 1.22911 28.871 1.18886C28.871 1.14631 28.8314 1.12478 28.7526 1.12478C28.6735 1.12478 28.6342 1.10351 28.6342 1.0607C28.6342 1.0161 28.5925 0.996615 28.496 0.996615C28.3996 0.996615 28.3579 0.977391 28.3579 0.932533C28.3579 0.889982 28.3184 0.86845 28.2396 0.86845C28.1607 0.86845 28.1212 0.847174 28.1212 0.804367C28.1212 0.755921 28.0729 0.740285 27.924 0.740285C27.7748 0.740285 27.7266 0.724648 27.7266 0.676202C27.7266 0.624936 27.6674 0.612119 27.4306 0.612119C27.1939 0.612119 27.1347 0.599302 27.1347 0.548036C27.1347 0.494463 27.0533 0.483954 26.6373 0.483954C26.2114 0.483954 26.1432 0.474726 26.1626 0.419871C26.1823 0.364503 26.0904 0.355788 25.4763 0.355788C24.8724 0.355788 24.7673 0.346304 24.7673 0.291705C24.7673 0.236338 24.6205 0.227623 23.6823 0.227623C22.7441 0.227623 22.5973 0.218908 22.5973 0.16354C22.5973 0.107404 22.3144 0.0994573 20.2891 0.0994573C18.7766 0.0994573 17.9809 0.0848464 17.9809 0.0569064C17.9809 0.0289663 17.2707 0.0140991 15.9291 0.0140991C14.5874 0.0140991 13.8772 0.0289663 13.8772 0.0569064ZM13.3569 6.89248C13.5373 7.00988 13.6923 7.10601 13.7016 7.10601C13.711 7.10601 13.8981 7.22135 14.1173 7.36234C14.3365 7.50332 14.5221 7.61867 14.5299 7.61867C14.5375 7.61867 14.8131 7.79169 15.1421 8.00316C15.4712 8.21464 15.7465 8.38766 15.7543 8.38766C15.7619 8.38766 16.0093 8.54146 16.3038 8.72935C16.5986 8.91724 16.8462 9.07104 16.854 9.07104C16.862 9.07104 17.0922 9.21535 17.3654 9.39145C17.6386 9.56781 17.8691 9.71187 17.8777 9.71187C17.8862 9.71187 18.1625 9.88489 18.4915 10.0964C18.8206 10.3078 19.0959 10.4809 19.1035 10.4809C19.1108 10.4809 19.3419 10.6252 19.617 10.8013C19.8919 10.9776 20.1232 11.1217 20.131 11.1217C20.1388 11.1217 20.2576 11.1932 20.3947 11.2806C20.6319 11.4318 20.7013 11.4936 20.7027 11.5549C20.7034 11.5813 20.3708 11.8035 19.9733 12.0424C19.8649 12.1078 19.6014 12.2734 19.3876 12.4105C19.1741 12.5477 18.9934 12.6597 18.9861 12.6597C18.9785 12.6597 18.7361 12.8099 18.447 12.9934C18.1582 13.1769 17.6641 13.4871 17.3495 13.6827C17.0349 13.8783 16.524 14.1992 16.2143 14.3958C15.9049 14.5924 15.645 14.7531 15.6367 14.7531C15.6286 14.7531 15.3528 14.9261 15.0238 15.1376C14.6947 15.3491 14.4177 15.5221 14.4085 15.5221C14.3992 15.5221 14.2804 15.5957 14.1443 15.6854C14.0084 15.7751 13.7728 15.9223 13.6208 16.0125C13.4688 16.1025 13.2655 16.2296 13.1687 16.2947C13.0718 16.3598 12.9788 16.4039 12.9615 16.3924C12.9239 16.3672 12.9191 6.74791 12.9565 6.70715C12.9987 6.66178 13.0122 6.66794 13.3569 6.89248Z" fill="#181C06"/>
</g>
<defs>
<clipPath id="clip0_0_133">
<rect width="30.2222" height="22.9858" fill="white" transform="translate(0.777832 0.0140991)"/>
</clipPath>
</defs>
</svg>
